<?xml version="1.0" encoding="utf-8"?>
<!-- Generator: Adobe Illustrator 28.2.0, SVG Export Plug-In . SVG Version: 6.00 Build 0)  -->
<svg version="1.1" id="Layer_1" xmlns="http://www.w3.org/2000/svg" xmlns:xlink="http://www.w3.org/1999/xlink" x="0px" y="0px"
	 viewBox="0 0 133.8 42" style="enable-background:new 0 0 133.8 42;" xml:space="preserve">
<style type="text/css">
	.st0{fill:#1F6EAA;}
	.st1{fill:url(#SVGID_1_);}
	.st2{fill:url(#SVGID_00000060720707746935130060000012991253548267741082_);}
	.st3{fill:url(#SVGID_00000168104400718814354980000014343830961898203310_);}
	.st4{fill:url(#SVGID_00000035513573236525223400000006058875767674554522_);}
	.st5{fill:url(#SVGID_00000103255564625304327410000012854147056047125153_);}
	.st6{fill:url(#SVGID_00000109020035850018244060000005941415028474355351_);}
	.st7{fill:#3AA2A8;}
	.st8{fill:url(#SVGID_00000065781586828444288490000009322341759056835774_);}
	.st9{fill:url(#SVGID_00000115475899685787980540000007266746529303876284_);}
	.st10{fill:url(#SVGID_00000077299301438822526270000005850446649688530056_);}
	.st11{fill:url(#SVGID_00000118395821108756425120000002913610217719750291_);}
	.st12{fill:url(#SVGID_00000093148672851837120220000016258475961835439254_);}
	.st13{fill:url(#SVGID_00000043422508407164458330000000404889954160193931_);}
	.st14{fill:url(#SVGID_00000105413263504457785260000004166629682114459287_);}
	.st15{fill:url(#SVGID_00000027572540625042541990000007481999792866556544_);}
	.st16{fill:url(#SVGID_00000110431011955775801950000007555755796018299829_);}
</style>
<path d="M-1692.1-167.2c-0.8,0.8-1.5,1.5-2.3,2.3C-1693.6-165.7-1692.9-166.5-1692.1-167.2z"/>
<g>
	<path class="st0" d="M-1735.1-158.9c-4.6-2-8.2-4.9-10.9-8.6c-2.6-3.7-4-8-4-13h15.1c0.3,3.7,1.8,6.8,4.4,9.1
		c2.6,2.4,6.2,3.6,10.9,3.6c4.9,0,8.7-1.2,11.4-3.5c2.7-2.3,4.1-5.4,4.1-9.1c0-2.9-0.8-5.2-2.5-7c-1.7-1.8-3.8-3.2-6.3-4.2
		c-2.5-1-6-2.1-10.4-3.2c-5.6-1.5-10.2-3-13.7-4.5c-3.5-1.5-6.5-3.9-9-7.1c-2.5-3.2-3.7-7.5-3.7-12.9c0-4.9,1.2-9.3,3.7-13
		s5.9-6.6,10.4-8.5c4.5-2,9.6-3,15.5-3c8.3,0,15.1,2.1,20.5,6.2c5.3,4.2,8.3,9.9,8.8,17.1h-15.6c-0.2-3.1-1.7-5.8-4.5-8
		c-2.7-2.2-6.3-3.3-10.8-3.3c-4,0-7.3,1-9.9,3.1c-2.6,2.1-3.8,5-3.8,8.9c0,2.6,0.8,4.8,2.4,6.5c1.6,1.7,3.6,3,6.1,4
		c2.5,1,5.9,2.1,10.1,3.2c5.7,1.6,10.3,3.1,13.9,4.7c3.6,1.6,6.6,4,9.1,7.2c2.5,3.3,3.8,7.6,3.8,13c0,4.4-1.2,8.5-3.5,12.4
		c-2.3,3.9-5.8,7-10.3,9.3c-4.5,2.3-9.8,3.5-15.9,3.5C-1725.3-155.8-1730.5-156.9-1735.1-158.9z"/>
	<path class="st0" d="M-1618.5-204.7c-2.1,3.9-5.4,7-9.9,9.5c-4.5,2.4-10.3,3.6-17.4,3.6h-15.6v34.9h-14.1v-85.9h29.7
		c6.6,0,12.2,1.1,16.8,3.4c4.6,2.3,8,5.3,10.3,9.2c2.3,3.9,3.4,8.2,3.4,13C-1615.4-212.7-1616.5-208.6-1618.5-204.7z M-1633.9-206.7
		c2.6-2.4,4-5.9,4-10.3c0-9.4-5.3-14.1-15.9-14.1h-15.6v28.1h15.6C-1640.5-203.1-1636.5-204.3-1633.9-206.7z"/>
	<path class="st0" d="M-1587.2-161.5c-6.7-3.7-12-9-15.9-15.7c-3.9-6.7-5.9-14.3-5.9-22.7s2-15.9,5.9-22.6
		c3.9-6.7,9.2-11.9,15.9-15.6c6.7-3.7,14.1-5.6,22.1-5.6c8.1,0,15.5,1.9,22.2,5.6c6.7,3.8,12,9,15.9,15.6c3.9,6.7,5.8,14.2,5.8,22.6
		s-1.9,16-5.8,22.7c-3.9,6.7-9.2,12-15.9,15.7c-6.7,3.8-14.1,5.6-22.2,5.6C-1573.1-155.8-1580.5-157.7-1587.2-161.5z M-1549.9-172
		c4.5-2.6,7.9-6.3,10.4-11.1c2.5-4.8,3.8-10.4,3.8-16.8c0-6.3-1.3-11.9-3.8-16.7c-2.5-4.8-6-8.4-10.4-11c-4.5-2.6-9.5-3.8-15.2-3.8
		c-5.7,0-10.8,1.3-15.2,3.8c-4.5,2.6-7.9,6.2-10.4,11c-2.5,4.8-3.8,10.3-3.8,16.7c0,6.3,1.3,11.9,3.8,16.8c2.5,4.8,6,8.5,10.4,11.1
		s9.5,3.9,15.2,3.9C-1559.4-168.1-1554.4-169.4-1549.9-172z"/>
	<path class="st0" d="M-1454.2-242.6v11.5h-22.9v74.4h-14.1v-74.4h-23v-11.5H-1454.2z"/>
	<path class="st0" d="M-1389.4-242.6v11.5h-36.5v25.3h28.4v11.5h-28.4v37.6h-14.1v-85.9H-1389.4z"/>
	<path class="st0" d="M-1362.2-242.6v85.9h-14.1v-85.9H-1362.2z"/>
	<path class="st0" d="M-1299.1-156.7l-19.8-34.4h-10.8v34.4h-14.1v-85.9h29.7c6.6,0,12.2,1.2,16.8,3.5c4.6,2.3,8,5.4,10.3,9.3
		c2.3,3.9,3.4,8.2,3.4,13c0,5.6-1.6,10.7-4.9,15.3c-3.3,4.6-8.3,7.7-15,9.3l21.3,35.6H-1299.1z M-1329.6-202.3h15.6
		c5.3,0,9.3-1.3,11.9-4c2.7-2.6,4-6.2,4-10.6c0-4.5-1.3-7.9-4-10.4c-2.6-2.5-6.6-3.8-12-3.8h-15.6V-202.3z"/>
	<path class="st0" d="M-1251.5-231.3v25.2h29.7v11.5h-29.7v26.3h33.4v11.5h-47.5v-86h47.5v11.5H-1251.5z"/>
</g>
<g>
	<path class="st0" d="M-1677,245.5c-2.9-1.2-5.3-3-7-5.3c-1.8-2.4-2.7-5.2-2.8-8.5h13.1c0.2,1.9,0.8,3.3,1.9,4.3
		c1.1,1,2.5,1.5,4.3,1.5c1.8,0,3.3-0.4,4.3-1.3c1.1-0.8,1.6-2,1.6-3.5c0-1.2-0.4-2.3-1.3-3.1c-0.8-0.8-1.9-1.5-3.1-2s-3-1.1-5.2-1.8
		c-3.3-1-5.9-2-8-3c-2.1-1-3.8-2.5-5.3-4.5c-1.5-2-2.2-4.5-2.2-7.7c0-4.7,1.7-8.4,5.1-11.1c3.4-2.7,7.8-4,13.3-4
		c5.6,0,10.1,1.3,13.5,4c3.4,2.7,5.2,6.4,5.5,11.1h-13.3c-0.1-1.6-0.7-2.9-1.8-3.9c-1.1-0.9-2.5-1.4-4.2-1.4c-1.5,0-2.7,0.4-3.6,1.2
		c-0.9,0.8-1.4,1.9-1.4,3.4c0,1.6,0.8,2.9,2.3,3.8c1.5,0.9,3.9,1.9,7.2,3c3.3,1.1,5.9,2.2,8,3.2c2,1,3.8,2.5,5.3,4.4
		c1.5,1.9,2.2,4.4,2.2,7.4c0,2.9-0.7,5.5-2.2,7.8c-1.5,2.4-3.6,4.2-6.4,5.6c-2.8,1.4-6.1,2.1-9.9,2.1
		C-1670.7,247.3-1674.1,246.7-1677,245.5z"/>
	<path class="st0" d="M-1605.9,220.6c-1.3,2.4-3.4,4.4-6.2,5.9c-2.8,1.5-6.2,2.2-10.4,2.2h-7.6v18.1h-12.3v-50.5h19.9
		c4,0,7.4,0.7,10.2,2.1c2.8,1.4,4.9,3.3,6.3,5.8c1.4,2.4,2.1,5.3,2.1,8.4C-1603.9,215.5-1604.6,218.1-1605.9,220.6z M-1618.2,217.2
		c1.2-1.1,1.7-2.7,1.7-4.7c0-2-0.6-3.6-1.7-4.7c-1.2-1.1-2.9-1.7-5.3-1.7h-6.7v12.7h6.7C-1621.1,218.9-1619.3,218.3-1618.2,217.2z"
		/>
	<path class="st0" d="M-1588,244c-4-2.2-7.1-5.3-9.4-9.3c-2.3-4-3.5-8.4-3.5-13.4c0-4.9,1.2-9.4,3.5-13.3c2.3-3.9,5.5-7,9.4-9.2
		c4-2.2,8.3-3.3,13.1-3.3s9.1,1.1,13.1,3.3c4,2.2,7.1,5.3,9.4,9.2c2.3,3.9,3.4,8.4,3.4,13.3c0,4.9-1.2,9.4-3.5,13.4
		c-2.3,4-5.4,7-9.4,9.3c-3.9,2.2-8.3,3.3-13,3.3S-1584.1,246.2-1588,244z M-1565.3,232c2.4-2.7,3.6-6.2,3.6-10.7
		c0-4.5-1.2-8-3.6-10.7c-2.4-2.7-5.7-4-9.7-4c-4.1,0-7.3,1.3-9.8,4c-2.4,2.6-3.6,6.2-3.6,10.7c0,4.5,1.2,8,3.6,10.7
		c2.4,2.7,5.7,4,9.8,4C-1570.9,236.1-1567.7,234.7-1565.3,232z"/>
	<path class="st0" d="M-1507.3,196.3v9.9h-13.4v40.7h-12.3v-40.7h-13.4v-9.9H-1507.3z"/>
</g>
<g>
	<linearGradient id="SVGID_1_" gradientUnits="userSpaceOnUse" x1="-1442.2762" y1="-301.459" x2="-1442.2762" y2="-656.2025">
		<stop  offset="0" style="stop-color:#55C1AB"/>
		<stop  offset="1" style="stop-color:#1F6EAA"/>
	</linearGradient>
	<path class="st1" d="M-1422.9-312.7c-5.9,4.4-12.3,8.2-19,11.2c0.9-0.6,1.7-1.1,2.6-1.7c49.9-33.6-21.8-113.4-21.8-113.4l-6.7-7.9
		c-3.7-12.3-9-24.3-13.8-36.1c-9.9-24.2-18.2-49.3-20.4-75.3c-2.3-26,1.8-53.2,15.3-75.6c13.4-22.4,39.6-42.7,65.6-44.7
		c-21.5,10-34.6,33.7-36.6,57.3c-2.1,23.7,5.4,47.3,16,68.5c10.6,21.3,24.4,40.8,36.1,61.4c11.7,20.7,21.6,43,23.3,66.7
		C-1379.8-368.1-1395.6-333.3-1422.9-312.7z"/>
	
		<linearGradient id="SVGID_00000152239027276692815430000010623833932207470739_" gradientUnits="userSpaceOnUse" x1="-1577.3069" y1="-441.4911" x2="-1478.3699" y2="-441.4911">
		<stop  offset="0" style="stop-color:#55C1AB"/>
		<stop  offset="1" style="stop-color:#1F6EAA"/>
	</linearGradient>
	<path style="fill:url(#SVGID_00000152239027276692815430000010623833932207470739_);" d="M-1532.3-367.7c13.3-7.5,20-25,15.1-39.5
		c-2.4-6.9-6.9-12.9-11.3-18.7c-7.7-10.3-15.2-21-20.5-32.8c-5.2-11.8-8.1-24.9-6.2-37.7c2.5-16.8,14.2-32.4,30.3-37.7
		c-11.2,7.4-16.5,22.8-12.1,35.6c2.8,8.1,8.7,14.5,14.3,21c8.6,9.9,16.9,20.1,24.7,30.6c8.2,11.1,16.2,23,18.8,36.6
		c3.1,15.8-1.7,32.9-12.5,44.8s-27.4,18.3-43.4,16.7c-11.9-1.2-23.3-6.7-31.7-15.1c-1.9-1.9-4-3.5-5.7-5.7c-1.9-2.3-3.4-4.9-4.7-7.6
		c0.4,0.9,2,1.9,2.8,2.5c1,0.9,2,1.7,3,2.6c2,1.6,3.9,3,6.1,4.2c4.4,2.5,9.3,3.9,14.3,4.3C-1544.7-363.3-1538-364.5-1532.3-367.7z"
		/>
	
		<linearGradient id="SVGID_00000048493734584064236480000003229633971091589786_" gradientUnits="userSpaceOnUse" x1="-1585.1748" y1="-358.2942" x2="-1421.5627" y2="-358.2942">
		<stop  offset="0" style="stop-color:#3AA2A8"/>
		<stop  offset="1" style="stop-color:#1F5EA5"/>
	</linearGradient>
	<path style="fill:url(#SVGID_00000048493734584064236480000003229633971091589786_);" d="M-1439.2-303.2c-0.9,0.6-1.7,1.2-2.6,1.7
		c-13.8,6.3-29.1,9.5-44.2,9.4c-11.6-0.1-23.1-2-34-6c-32.1-11.7-57.5-40.3-65.1-73.6c8.6,25,38.2,40.3,64.6,38.8
		c16.6-1,32.3-9.5,43.1-22.1c6.4-7.5,11-16.3,13.1-26c3.2-14.6,1-29.2-3.4-43.5l6.7,7.9C-1461-416.6-1389.3-336.8-1439.2-303.2z"/>
</g>
<g>
	
		<linearGradient id="SVGID_00000155848393831600945750000018217167069734821017_" gradientUnits="userSpaceOnUse" x1="-1735.0967" y1="315.5483" x2="-1735.0967" y2="156.5316">
		<stop  offset="0" style="stop-color:#55C1AB"/>
		<stop  offset="1" style="stop-color:#1F6EAA"/>
	</linearGradient>
	<path style="fill:url(#SVGID_00000155848393831600945750000018217167069734821017_);" d="M-1726.4,310.5c-2.6,2-5.5,3.7-8.5,5
		c0.4-0.2,0.8-0.5,1.2-0.8c22.4-15.1-9.8-50.9-9.8-50.9l-3-3.5c-1.7-5.5-4-10.9-6.2-16.2c-4.4-10.8-8.1-22.1-9.2-33.8
		c-1-11.7,0.8-23.8,6.8-33.9c6-10,17.8-19.1,29.4-20c-9.7,4.5-15.5,15.1-16.4,25.7c-0.9,10.6,2.4,21.2,7.2,30.7
		c4.8,9.5,10.9,18.3,16.2,27.5c5.3,9.3,9.7,19.3,10.4,29.9C-1707.1,285.7-1714.2,301.3-1726.4,310.5z"/>
	
		<linearGradient id="SVGID_00000169525274983640245490000002326454297536415143_" gradientUnits="userSpaceOnUse" x1="-1795.6252" y1="252.7778" x2="-1751.276" y2="252.7778">
		<stop  offset="0" style="stop-color:#55C1AB"/>
		<stop  offset="1" style="stop-color:#1F6EAA"/>
	</linearGradient>
	<path style="fill:url(#SVGID_00000169525274983640245490000002326454297536415143_);" d="M-1775.5,285.8c6-3.4,8.9-11.2,6.7-17.7
		c-1.1-3.1-3.1-5.8-5.1-8.4c-3.5-4.6-6.8-9.4-9.2-14.7c-2.3-5.3-3.6-11.2-2.8-16.9c1.1-7.5,6.4-14.5,13.6-16.9
		c-5,3.3-7.4,10.2-5.4,15.9c1.2,3.6,3.9,6.5,6.4,9.4c3.9,4.4,7.6,9,11.1,13.7c3.7,5,7.2,10.3,8.4,16.4c1.4,7.1-0.8,14.7-5.6,20.1
		c-4.8,5.3-12.3,8.2-19.4,7.5c-5.3-0.5-10.4-3-14.2-6.8c-0.9-0.9-1.8-1.6-2.6-2.6c-0.8-1-1.5-2.2-2.1-3.4c0.2,0.4,0.9,0.8,1.3,1.1
		c0.4,0.4,0.9,0.8,1.4,1.2c0.9,0.7,1.7,1.4,2.7,1.9c2,1.1,4.2,1.8,6.4,1.9C-1781,287.8-1778,287.3-1775.5,285.8z"/>
	
		<linearGradient id="SVGID_00000097481544918472656360000014636785710251795845_" gradientUnits="userSpaceOnUse" x1="-1799.1521" y1="290.0715" x2="-1725.8116" y2="290.0715">
		<stop  offset="0" style="stop-color:#3AA2A8"/>
		<stop  offset="1" style="stop-color:#1F5EA5"/>
	</linearGradient>
	<path style="fill:url(#SVGID_00000097481544918472656360000014636785710251795845_);" d="M-1733.7,314.8c-0.4,0.3-0.8,0.5-1.2,0.8
		c-6.2,2.8-13,4.2-19.8,4.2c-5.2,0-10.4-0.9-15.2-2.7c-14.4-5.2-25.8-18.1-29.2-33c3.9,11.2,17.1,18.1,29,17.4
		c7.5-0.4,14.5-4.3,19.3-9.9c2.9-3.3,4.9-7.3,5.9-11.6c1.4-6.5,0.4-13.1-1.5-19.5l3,3.5C-1743.5,263.9-1711.4,299.7-1733.7,314.8z"
		/>
</g>
<rect x="-1639.2" y="37" class="st7" width="34.4" height="14.7"/>
<rect x="-1584.5" y="34.7" class="st0" width="33.4" height="17"/>
<g>
	<path class="st7" d="M-1653.5,262.3v9.9h-20.6v10.7h15.4v9.6h-15.4v20.4h-12.3v-50.5H-1653.5z"/>
	<path class="st7" d="M-1636.1,262.3v50.5h-12.3v-50.5H-1636.1z"/>
	<path class="st7" d="M-1602.7,312.9l-10.5-19.1h-3v19.1h-12.3v-50.5h20.7c4,0,7.4,0.7,10.2,2.1c2.8,1.4,4.9,3.3,6.3,5.7
		c1.4,2.4,2.1,5.1,2.1,8.1c0,3.4-0.9,6.4-2.8,9c-1.9,2.6-4.7,4.5-8.4,5.6l11.7,20H-1602.7z M-1616.2,285.1h7.6
		c2.3,0,3.9-0.6,5.1-1.7c1.1-1.1,1.7-2.7,1.7-4.7c0-1.9-0.6-3.4-1.7-4.5c-1.1-1.1-2.8-1.7-5.1-1.7h-7.6V285.1z"/>
	<path class="st7" d="M-1570.6,272.2v10.2h16.5v9.5h-16.5V303h18.6v9.9h-31v-50.5h31v9.9H-1570.6z"/>
</g>
<g>
	<path class="st0" d="M-1664.5,741.4c-3.6-1.5-6.5-3.7-8.6-6.6c-2.2-2.9-3.3-6.4-3.4-10.4h16.1c0.2,2.3,1,4.1,2.4,5.3
		c1.4,1.2,3.1,1.8,5.3,1.8c2.2,0,4-0.5,5.3-1.5c1.3-1,1.9-2.5,1.9-4.3c0-1.5-0.5-2.8-1.5-3.8c-1-1-2.3-1.8-3.8-2.5
		c-1.5-0.6-3.6-1.4-6.4-2.2c-4-1.2-7.3-2.5-9.8-3.7c-2.5-1.2-4.7-3.1-6.6-5.5c-1.8-2.4-2.7-5.6-2.7-9.5c0-5.8,2.1-10.3,6.3-13.6
		c4.2-3.3,9.6-4.9,16.4-4.9c6.8,0,12.4,1.6,16.6,4.9c4.2,3.3,6.4,7.8,6.7,13.7h-16.4c-0.1-2-0.9-3.6-2.2-4.7
		c-1.4-1.2-3.1-1.7-5.2-1.7c-1.8,0-3.3,0.5-4.4,1.5c-1.1,1-1.7,2.4-1.7,4.2c0,2,0.9,3.6,2.8,4.7c1.9,1.1,4.8,2.3,8.9,3.6
		c4,1.4,7.3,2.7,9.8,3.9c2.5,1.2,4.7,3,6.5,5.4c1.8,2.4,2.7,5.4,2.7,9.1c0,3.5-0.9,6.8-2.7,9.6c-1.8,2.9-4.4,5.2-7.8,6.9
		c-3.4,1.7-7.5,2.6-12.1,2.6C-1656.8,743.7-1660.9,742.9-1664.5,741.4z"/>
	<path class="st0" d="M-1577.1,710.8c-1.7,3-4.2,5.4-7.6,7.2c-3.4,1.8-7.7,2.7-12.7,2.7h-9.4V743h-15.1v-62.1h24.5
		c5,0,9.1,0.9,12.6,2.6c3.4,1.7,6,4.1,7.7,7.1c1.7,3,2.6,6.5,2.6,10.4C-1574.6,704.5-1575.5,707.8-1577.1,710.8z M-1592.2,706.7
		c1.4-1.4,2.1-3.3,2.1-5.8s-0.7-4.4-2.1-5.8c-1.4-1.4-3.6-2-6.5-2h-8.2v15.6h8.2C-1595.7,708.7-1593.6,708-1592.2,706.7z"/>
	<path class="st0" d="M-1555.1,739.6c-4.9-2.7-8.7-6.5-11.6-11.4c-2.9-4.9-4.3-10.3-4.3-16.4c0-6.1,1.4-11.5,4.3-16.4
		c2.9-4.8,6.7-8.6,11.6-11.3c4.9-2.7,10.2-4.1,16.1-4.1c5.8,0,11.2,1.4,16.1,4.1c4.9,2.7,8.7,6.5,11.5,11.3
		c2.8,4.8,4.2,10.3,4.2,16.4c0,6.1-1.4,11.6-4.2,16.4c-2.8,4.9-6.7,8.7-11.5,11.4c-4.8,2.7-10.2,4.1-16,4.1
		C-1544.9,743.7-1550.2,742.3-1555.1,739.6z M-1527.1,724.9c3-3.3,4.5-7.7,4.5-13.1c0-5.5-1.5-9.9-4.5-13.1c-3-3.3-6.9-4.9-11.9-4.9
		c-5,0-9,1.6-12,4.9c-3,3.2-4.5,7.6-4.5,13.2c0,5.5,1.5,9.9,4.5,13.1c3,3.3,7,4.9,12,4.9C-1534.1,729.9-1530.1,728.2-1527.1,724.9z"
		/>
	<path class="st0" d="M-1455.8,680.9V693h-16.5v50h-15.1v-50h-16.5v-12.1H-1455.8z"/>
	<path class="st7" d="M-1407.8,680.9V693h-25.3v13.1h18.9v11.8h-18.9V743h-15.1v-62.1H-1407.8z"/>
	<path class="st7" d="M-1386.3,680.9V743h-15.1v-62.1H-1386.3z"/>
	<path class="st7" d="M-1345.4,743l-12.9-23.5h-3.6V743h-15.1v-62.1h25.4c4.9,0,9.1,0.9,12.5,2.6c3.5,1.7,6,4.1,7.7,7
		c1.7,3,2.6,6.3,2.6,10c0,4.1-1.2,7.8-3.5,11.1c-2.3,3.2-5.8,5.5-10.3,6.9l14.3,24.6H-1345.4z M-1361.9,708.9h9.4
		c2.8,0,4.9-0.7,6.2-2c1.4-1.4,2.1-3.3,2.1-5.8c0-2.4-0.7-4.2-2.1-5.6c-1.4-1.4-3.5-2-6.2-2h-9.4V708.9z"/>
	<path class="st7" d="M-1305.9,693v12.6h20.3v11.7h-20.3v13.6h22.9V743h-38.1v-62.1h38.1V693H-1305.9z"/>
</g>
<g>
	
		<linearGradient id="SVGID_00000098178485470583158850000015170504994621620921_" gradientUnits="userSpaceOnUse" x1="-1732.7271" y1="790.9075" x2="-1732.7271" y2="631.8909">
		<stop  offset="0" style="stop-color:#55C1AB"/>
		<stop  offset="1" style="stop-color:#1F6EAA"/>
	</linearGradient>
	<path style="fill:url(#SVGID_00000098178485470583158850000015170504994621620921_);" d="M-1724,785.9c-2.6,2-5.5,3.7-8.5,5
		c0.4-0.2,0.8-0.5,1.2-0.8c22.4-15.1-9.8-50.9-9.8-50.9l-3-3.5c-1.7-5.5-4-10.9-6.2-16.2c-4.4-10.8-8.1-22.1-9.2-33.8
		c-1-11.7,0.8-23.8,6.8-33.9c6-10,17.8-19.1,29.4-20c-9.7,4.5-15.5,15.1-16.4,25.7c-0.9,10.6,2.4,21.2,7.2,30.7
		c4.8,9.5,10.9,18.3,16.2,27.5c5.3,9.3,9.7,19.3,10.4,29.9C-1704.7,761-1711.8,776.6-1724,785.9z"/>
	
		<linearGradient id="SVGID_00000124870402668196519100000009402904504968285111_" gradientUnits="userSpaceOnUse" x1="-1793.2556" y1="728.137" x2="-1748.9064" y2="728.137">
		<stop  offset="0" style="stop-color:#55C1AB"/>
		<stop  offset="1" style="stop-color:#1F6EAA"/>
	</linearGradient>
	<path style="fill:url(#SVGID_00000124870402668196519100000009402904504968285111_);" d="M-1773.1,761.2c6-3.4,8.9-11.2,6.7-17.7
		c-1.1-3.1-3.1-5.8-5.1-8.4c-3.5-4.6-6.8-9.4-9.2-14.7c-2.3-5.3-3.6-11.2-2.8-16.9c1.1-7.5,6.4-14.5,13.6-16.9
		c-5,3.3-7.4,10.2-5.4,15.9c1.2,3.6,3.9,6.5,6.4,9.4c3.9,4.4,7.6,9,11.1,13.7c3.7,5,7.2,10.3,8.4,16.4c1.4,7.1-0.8,14.7-5.6,20.1
		c-4.8,5.3-12.3,8.2-19.4,7.5c-5.3-0.5-10.4-3-14.2-6.8c-0.9-0.9-1.8-1.6-2.6-2.6c-0.8-1-1.5-2.2-2.1-3.4c0.2,0.4,0.9,0.8,1.3,1.1
		c0.4,0.4,0.9,0.8,1.4,1.2c0.9,0.7,1.7,1.4,2.7,1.9c2,1.1,4.2,1.8,6.4,1.9C-1778.6,763.2-1775.6,762.6-1773.1,761.2z"/>
	
		<linearGradient id="SVGID_00000105425712626259705630000010656930369400336542_" gradientUnits="userSpaceOnUse" x1="-1796.7825" y1="765.4307" x2="-1723.442" y2="765.4307">
		<stop  offset="0" style="stop-color:#3AA2A8"/>
		<stop  offset="1" style="stop-color:#1F5EA5"/>
	</linearGradient>
	<path style="fill:url(#SVGID_00000105425712626259705630000010656930369400336542_);" d="M-1731.4,790.1c-0.4,0.3-0.8,0.5-1.2,0.8
		c-6.2,2.8-13,4.2-19.8,4.2c-5.2,0-10.4-0.9-15.2-2.7c-14.4-5.2-25.8-18.1-29.2-33c3.9,11.2,17.1,18.1,29,17.4
		c7.5-0.4,14.5-4.3,19.3-9.9c2.9-3.3,4.9-7.3,5.9-11.6c1.4-6.5,0.4-13.1-1.5-19.5l3,3.5C-1741.1,739.3-1709,775.1-1731.4,790.1z"/>
</g>
<g>
	<path class="st0" d="M-1670.2,789c-1.2-0.5-2.2-1.2-2.9-2.2c-0.7-1-1.1-2.2-1.2-3.5h5.4c0.1,0.8,0.3,1.4,0.8,1.8
		c0.5,0.4,1.1,0.6,1.8,0.6c0.8,0,1.4-0.2,1.8-0.5c0.4-0.3,0.7-0.8,0.7-1.5c0-0.5-0.2-0.9-0.5-1.3c-0.3-0.3-0.8-0.6-1.3-0.8
		c-0.5-0.2-1.2-0.5-2.2-0.7c-1.4-0.4-2.5-0.8-3.3-1.3c-0.9-0.4-1.6-1-2.2-1.9s-0.9-1.9-0.9-3.2c0-2,0.7-3.5,2.1-4.6s3.3-1.7,5.5-1.7
		c2.3,0,4.2,0.6,5.6,1.7c1.4,1.1,2.2,2.6,2.3,4.6h-5.5c0-0.7-0.3-1.2-0.7-1.6c-0.5-0.4-1-0.6-1.8-0.6c-0.6,0-1.1,0.2-1.5,0.5
		c-0.4,0.3-0.6,0.8-0.6,1.4c0,0.7,0.3,1.2,1,1.6c0.6,0.4,1.6,0.8,3,1.2c1.4,0.5,2.5,0.9,3.3,1.3c0.8,0.4,1.6,1,2.2,1.8
		c0.6,0.8,0.9,1.8,0.9,3.1c0,1.2-0.3,2.3-0.9,3.3c-0.6,1-1.5,1.8-2.6,2.3c-1.2,0.6-2.5,0.9-4.1,0.9
		C-1667.6,789.7-1669,789.5-1670.2,789z"/>
	<path class="st0" d="M-1634.2,778.6c-0.6,1-1.4,1.8-2.6,2.4c-1.2,0.6-2.6,0.9-4.3,0.9h-3.2v7.5h-5.1v-21h8.3c1.7,0,3.1,0.3,4.2,0.9
		s2,1.4,2.6,2.4c0.6,1,0.9,2.2,0.9,3.5C-1633.3,776.5-1633.6,777.6-1634.2,778.6z M-1639.2,777.2c0.5-0.5,0.7-1.1,0.7-1.9
		c0-0.8-0.2-1.5-0.7-1.9c-0.5-0.5-1.2-0.7-2.2-0.7h-2.8v5.3h2.8C-1640.4,777.9-1639.7,777.7-1639.2,777.2z"/>
	<path class="st0" d="M-1620.2,788.4c-1.6-0.9-3-2.2-3.9-3.8c-1-1.6-1.5-3.5-1.5-5.5c0-2.1,0.5-3.9,1.5-5.5c1-1.6,2.3-2.9,3.9-3.8
		c1.6-0.9,3.5-1.4,5.4-1.4c2,0,3.8,0.5,5.4,1.4c1.6,0.9,2.9,2.2,3.9,3.8c0.9,1.6,1.4,3.5,1.4,5.5c0,2.1-0.5,3.9-1.4,5.5
		c-1,1.6-2.3,2.9-3.9,3.8s-3.4,1.4-5.4,1.4C-1616.7,789.7-1618.5,789.3-1620.2,788.4z M-1610.7,783.4c1-1.1,1.5-2.6,1.5-4.4
		c0-1.9-0.5-3.3-1.5-4.4c-1-1.1-2.3-1.7-4-1.7c-1.7,0-3,0.5-4.1,1.6s-1.5,2.6-1.5,4.5c0,1.9,0.5,3.3,1.5,4.4c1,1.1,2.4,1.7,4.1,1.7
		C-1613.1,785.1-1611.7,784.5-1610.7,783.4z"/>
	<path class="st0" d="M-1580.1,768.5v4.1h-5.6v16.9h-5.1v-16.9h-5.6v-4.1H-1580.1z"/>
	<path class="st0" d="M-1557.9,768.5v4.1h-8.6v4.4h6.4v4h-6.4v8.5h-5.1v-21H-1557.9z"/>
	<path class="st0" d="M-1533.4,789c-1.2-0.5-2.2-1.2-2.9-2.2c-0.7-1-1.1-2.2-1.2-3.5h5.4c0.1,0.8,0.3,1.4,0.8,1.8
		c0.5,0.4,1.1,0.6,1.8,0.6c0.8,0,1.4-0.2,1.8-0.5c0.4-0.3,0.7-0.8,0.7-1.5c0-0.5-0.2-0.9-0.5-1.3s-0.8-0.6-1.3-0.8
		c-0.5-0.2-1.2-0.5-2.2-0.7c-1.4-0.4-2.5-0.8-3.3-1.3c-0.9-0.4-1.6-1-2.2-1.9c-0.6-0.8-0.9-1.9-0.9-3.2c0-2,0.7-3.5,2.1-4.6
		c1.4-1.1,3.3-1.7,5.5-1.7c2.3,0,4.2,0.6,5.6,1.7s2.2,2.6,2.3,4.6h-5.5c0-0.7-0.3-1.2-0.7-1.6c-0.5-0.4-1-0.6-1.8-0.6
		c-0.6,0-1.1,0.2-1.5,0.5c-0.4,0.3-0.6,0.8-0.6,1.4c0,0.7,0.3,1.2,1,1.6c0.6,0.4,1.6,0.8,3,1.2c1.4,0.5,2.5,0.9,3.3,1.3
		s1.6,1,2.2,1.8c0.6,0.8,0.9,1.8,0.9,3.1c0,1.2-0.3,2.3-0.9,3.3c-0.6,1-1.5,1.8-2.6,2.3c-1.2,0.6-2.5,0.9-4.1,0.9
		C-1530.8,789.7-1532.2,789.5-1533.4,789z"/>
	<path class="st0" d="M-1497.3,778.6c-0.6,1-1.4,1.8-2.6,2.4c-1.2,0.6-2.6,0.9-4.3,0.9h-3.2v7.5h-5.1v-21h8.3c1.7,0,3.1,0.3,4.2,0.9
		c1.2,0.6,2,1.4,2.6,2.4s0.9,2.2,0.9,3.5C-1496.5,776.5-1496.8,777.6-1497.3,778.6z M-1502.4,777.2c0.5-0.5,0.7-1.1,0.7-1.9
		c0-0.8-0.2-1.5-0.7-1.9c-0.5-0.5-1.2-0.7-2.2-0.7h-2.8v5.3h2.8C-1503.6,777.9-1502.9,777.7-1502.4,777.2z"/>
	<path class="st0" d="M-1483.3,788.4c-1.6-0.9-3-2.2-3.9-3.8c-1-1.6-1.5-3.5-1.5-5.5c0-2.1,0.5-3.9,1.5-5.5c1-1.6,2.3-2.9,3.9-3.8
		c1.6-0.9,3.5-1.4,5.4-1.4s3.8,0.5,5.4,1.4c1.6,0.9,2.9,2.2,3.9,3.8c0.9,1.6,1.4,3.5,1.4,5.5c0,2.1-0.5,3.9-1.4,5.5
		c-1,1.6-2.3,2.9-3.9,3.8c-1.6,0.9-3.4,1.4-5.4,1.4S-1481.7,789.3-1483.3,788.4z M-1473.9,783.4c1-1.1,1.5-2.6,1.5-4.4
		c0-1.9-0.5-3.3-1.5-4.4c-1-1.1-2.3-1.7-4-1.7c-1.7,0-3,0.5-4.1,1.6s-1.5,2.6-1.5,4.5c0,1.9,0.5,3.3,1.5,4.4c1,1.1,2.4,1.7,4.1,1.7
		C-1476.2,785.1-1474.9,784.5-1473.9,783.4z"/>
	<path class="st0" d="M-1443.2,768.5v4.1h-5.6v16.9h-5.1v-16.9h-5.6v-4.1H-1443.2z"/>
	<path class="st0" d="M-1408.7,768.5v4.1h-8.6v4.4h6.4v4h-6.4v8.5h-5.1v-21H-1408.7z"/>
	<path class="st0" d="M-1394.9,768.5v21h-5.1v-21H-1394.9z"/>
	<path class="st0" d="M-1374.5,789.5l-4.4-7.9h-1.2v7.9h-5.1v-21h8.6c1.7,0,3.1,0.3,4.2,0.9c1.2,0.6,2,1.4,2.6,2.4
		c0.6,1,0.9,2.1,0.9,3.4c0,1.4-0.4,2.6-1.2,3.7c-0.8,1.1-1.9,1.9-3.5,2.3l4.8,8.3H-1374.5z M-1380.1,778h3.2c0.9,0,1.6-0.2,2.1-0.7
		c0.5-0.5,0.7-1.1,0.7-1.9c0-0.8-0.2-1.4-0.7-1.9c-0.5-0.5-1.2-0.7-2.1-0.7h-3.2V778z"/>
	<path class="st0" d="M-1354.6,772.6v4.2h6.8v3.9h-6.8v4.6h7.7v4.1h-12.9v-21h12.9v4.1H-1354.6z"/>
	<path class="st0" d="M-1332.5,768.5v21h-5.1v-21H-1332.5z"/>
	<path class="st0" d="M-1312.1,789.5l-4.4-7.9h-1.2v7.9h-5.1v-21h8.6c1.7,0,3.1,0.3,4.2,0.9c1.2,0.6,2,1.4,2.6,2.4
		c0.6,1,0.9,2.1,0.9,3.4c0,1.4-0.4,2.6-1.2,3.7c-0.8,1.1-1.9,1.9-3.5,2.3l4.8,8.3H-1312.1z M-1317.6,778h3.2c0.9,0,1.6-0.2,2.1-0.7
		c0.5-0.5,0.7-1.1,0.7-1.9c0-0.8-0.2-1.4-0.7-1.9c-0.5-0.5-1.2-0.7-2.1-0.7h-3.2V778z"/>
	<path class="st0" d="M-1292.2,772.6v4.2h6.8v3.9h-6.8v4.6h7.7v4.1h-12.9v-21h12.9v4.1H-1292.2z"/>
</g>
<g>
	<g>
		<path class="st0" d="M37.9,32.9c-0.9-0.4-1.6-0.9-2.1-1.6c-0.5-0.7-0.8-1.6-0.8-2.6h4c0.1,0.6,0.3,1,0.6,1.3
			c0.3,0.3,0.8,0.4,1.3,0.4c0.6,0,1-0.1,1.3-0.4c0.3-0.3,0.5-0.6,0.5-1.1c0-0.4-0.1-0.7-0.4-0.9c-0.3-0.2-0.6-0.5-0.9-0.6
			c-0.4-0.2-0.9-0.3-1.6-0.5c-1-0.3-1.8-0.6-2.4-0.9c-0.6-0.3-1.2-0.8-1.6-1.4c-0.5-0.6-0.7-1.4-0.7-2.3c0-1.4,0.5-2.5,1.5-3.3
			c1-0.8,2.4-1.2,4-1.2c1.7,0,3,0.4,4.1,1.2c1,0.8,1.6,1.9,1.7,3.4h-4c0-0.5-0.2-0.9-0.5-1.2c-0.3-0.3-0.8-0.4-1.3-0.4
			c-0.5,0-0.8,0.1-1.1,0.4c-0.3,0.2-0.4,0.6-0.4,1c0,0.5,0.2,0.9,0.7,1.2c0.5,0.3,1.2,0.6,2.2,0.9c1,0.3,1.8,0.7,2.4,1
			c0.6,0.3,1.2,0.7,1.6,1.3c0.5,0.6,0.7,1.3,0.7,2.2c0,0.9-0.2,1.7-0.7,2.4c-0.4,0.7-1.1,1.3-1.9,1.7s-1.8,0.6-3,0.6
			C39.8,33.4,38.8,33.3,37.9,32.9z"/>
		<path class="st0" d="M59.4,25.3c-0.4,0.7-1,1.3-1.9,1.8c-0.8,0.5-1.9,0.7-3.1,0.7h-2.3v5.5h-3.7V18h6c1.2,0,2.3,0.2,3.1,0.6
			c0.8,0.4,1.5,1,1.9,1.7c0.4,0.7,0.6,1.6,0.6,2.6C60,23.8,59.8,24.6,59.4,25.3z M55.7,24.3c0.3-0.3,0.5-0.8,0.5-1.4
			c0-0.6-0.2-1.1-0.5-1.4S54.8,21,54.1,21h-2v3.8h2C54.8,24.8,55.4,24.7,55.7,24.3z"/>
		<path class="st0" d="M64.8,32.4c-1.2-0.7-2.2-1.6-2.9-2.8c-0.7-1.2-1.1-2.5-1.1-4c0-1.5,0.4-2.8,1.1-4c0.7-1.2,1.7-2.1,2.9-2.8
			c1.2-0.7,2.5-1,4-1c1.4,0,2.8,0.3,4,1c1.2,0.7,2.1,1.6,2.8,2.8c0.7,1.2,1,2.5,1,4c0,1.5-0.3,2.8-1,4c-0.7,1.2-1.6,2.1-2.8,2.8
			c-1.2,0.7-2.5,1-3.9,1C67.3,33.4,66,33.1,64.8,32.4z M71.7,28.8c0.7-0.8,1.1-1.9,1.1-3.2c0-1.4-0.4-2.4-1.1-3.2
			c-0.7-0.8-1.7-1.2-2.9-1.2c-1.2,0-2.2,0.4-3,1.2c-0.7,0.8-1.1,1.9-1.1,3.2c0,1.4,0.4,2.4,1.1,3.2c0.7,0.8,1.7,1.2,3,1.2
			C70,30,71,29.6,71.7,28.8z"/>
		<path class="st0" d="M89.3,18v3h-4.1v12.3h-3.7V21h-4.1v-3H89.3z"/>
		<path class="st7" d="M101.1,18v3h-6.2v3.2h4.7v2.9h-4.7v6.2h-3.7V18H101.1z"/>
		<path class="st7" d="M106.4,18v15.3h-3.7V18H106.4z"/>
		<path class="st7" d="M116.5,33.3l-3.2-5.8h-0.9v5.8h-3.7V18h6.3c1.2,0,2.2,0.2,3.1,0.6c0.9,0.4,1.5,1,1.9,1.7
			c0.4,0.7,0.6,1.6,0.6,2.5c0,1-0.3,1.9-0.9,2.7c-0.6,0.8-1.4,1.4-2.5,1.7l3.5,6.1H116.5z M112.4,24.9h2.3c0.7,0,1.2-0.2,1.5-0.5
			c0.3-0.3,0.5-0.8,0.5-1.4c0-0.6-0.2-1-0.5-1.4c-0.3-0.3-0.9-0.5-1.5-0.5h-2.3V24.9z"/>
		<path class="st7" d="M126.2,21v3.1h5v2.9h-5v3.4h5.6v3h-9.4V18h9.4v3H126.2z"/>
	</g>
	<g>
		
			<linearGradient id="SVGID_00000112609671645449329300000005926385345389079433_" gradientUnits="userSpaceOnUse" x1="17.7217" y1="40.0626" x2="17.7217" y2="0.9114">
			<stop  offset="0" style="stop-color:#55C1AB"/>
			<stop  offset="1" style="stop-color:#1F6EAA"/>
		</linearGradient>
		<path style="fill:url(#SVGID_00000112609671645449329300000005926385345389079433_);" d="M19.9,38.8c-0.6,0.5-1.4,0.9-2.1,1.2
			c0.1-0.1,0.2-0.1,0.3-0.2c5.5-3.7-2.4-12.5-2.4-12.5l-0.7-0.9c-0.4-1.4-1-2.7-1.5-4c-1.1-2.7-2-5.4-2.3-8.3
			c-0.3-2.9,0.2-5.9,1.7-8.3c1.5-2.5,4.4-4.7,7.2-4.9c-2.4,1.1-3.8,3.7-4,6.3c-0.2,2.6,0.6,5.2,1.8,7.6c1.2,2.3,2.7,4.5,4,6.8
			c1.3,2.3,2.4,4.7,2.6,7.4C24.6,32.7,22.9,36.6,19.9,38.8z"/>
		
			<linearGradient id="SVGID_00000045589383487243463270000004220930110605467579_" gradientUnits="userSpaceOnUse" x1="2.8191" y1="24.608" x2="13.7383" y2="24.608">
			<stop  offset="0" style="stop-color:#55C1AB"/>
			<stop  offset="1" style="stop-color:#1F6EAA"/>
		</linearGradient>
		<path style="fill:url(#SVGID_00000045589383487243463270000004220930110605467579_);" d="M7.8,32.7c1.5-0.8,2.2-2.8,1.7-4.4
			c-0.3-0.8-0.8-1.4-1.2-2.1c-0.9-1.1-1.7-2.3-2.3-3.6C5.4,21.4,5,20,5.2,18.5c0.3-1.9,1.6-3.6,3.3-4.2c-1.2,0.8-1.8,2.5-1.3,3.9
			c0.3,0.9,1,1.6,1.6,2.3c1,1.1,1.9,2.2,2.7,3.4c0.9,1.2,1.8,2.5,2.1,4c0.3,1.7-0.2,3.6-1.4,4.9c-1.2,1.3-3,2-4.8,1.8
			c-1.3-0.1-2.6-0.7-3.5-1.7c-0.2-0.2-0.4-0.4-0.6-0.6C3.1,32.3,3,32,2.8,31.7c0,0.1,0.2,0.2,0.3,0.3c0.1,0.1,0.2,0.2,0.3,0.3
			c0.2,0.2,0.4,0.3,0.7,0.5c0.5,0.3,1,0.4,1.6,0.5C6.4,33.2,7.2,33.1,7.8,32.7z"/>
		
			<linearGradient id="SVGID_00000119827526144363122880000006977180311585017737_" gradientUnits="userSpaceOnUse" x1="1.9508" y1="33.79" x2="20.0078" y2="33.79">
			<stop  offset="0" style="stop-color:#3AA2A8"/>
			<stop  offset="1" style="stop-color:#1F5EA5"/>
		</linearGradient>
		<path style="fill:url(#SVGID_00000119827526144363122880000006977180311585017737_);" d="M18.1,39.9c-0.1,0.1-0.2,0.1-0.3,0.2
			c-1.5,0.7-3.2,1-4.9,1c-1.3,0-2.6-0.2-3.8-0.7C5.6,39.1,2.8,36,2,32.3c1,2.8,4.2,4.5,7.1,4.3c1.8-0.1,3.6-1,4.8-2.4
			c0.7-0.8,1.2-1.8,1.4-2.9c0.4-1.6,0.1-3.2-0.4-4.8l0.7,0.9C15.7,27.4,23.6,36.2,18.1,39.9z"/>
	</g>
</g>
<g>
	<g>
		<path class="st0" d="M-1654.2,1266.1c-3.9-1.6-7-4-9.4-7.1c-2.3-3.1-3.6-6.9-3.7-11.4h17.5c0.3,2.5,1.1,4.4,2.6,5.7
			c1.5,1.3,3.4,2,5.8,2c2.4,0,4.4-0.6,5.8-1.7c1.4-1.1,2.1-2.7,2.1-4.7c0-1.7-0.6-3-1.7-4.1c-1.1-1.1-2.5-2-4.1-2.7
			c-1.6-0.7-4-1.5-7-2.4c-4.4-1.3-7.9-2.7-10.7-4c-2.8-1.3-5.1-3.3-7.1-6c-2-2.6-3-6.1-3-10.3c0-6.3,2.3-11.2,6.8-14.8
			c4.6-3.6,10.5-5.3,17.8-5.3c7.4,0,13.4,1.8,18,5.3c4.6,3.6,7,8.5,7.3,14.9h-17.8c-0.1-2.2-0.9-3.9-2.4-5.1
			c-1.5-1.3-3.4-1.9-5.7-1.9c-2,0-3.6,0.5-4.8,1.6c-1.2,1.1-1.8,2.6-1.8,4.6c0,2.2,1,3.9,3.1,5.1c2.1,1.2,5.3,2.5,9.6,3.9
			c4.4,1.5,7.9,2.9,10.6,4.2c2.7,1.3,5.1,3.3,7.1,5.9c2,2.6,3,5.9,3,9.9c0,3.8-1,7.3-2.9,10.5c-2,3.1-4.8,5.6-8.5,7.5
			c-3.7,1.9-8.1,2.8-13.2,2.8C-1645.8,1268.5-1650.3,1267.7-1654.2,1266.1z"/>
		<path class="st0" d="M-1559.2,1232.7c-1.8,3.2-4.6,5.9-8.3,7.8c-3.7,2-8.3,3-13.9,3h-10.2v24.3h-16.5v-67.6h26.7
			c5.4,0,9.9,0.9,13.7,2.8c3.7,1.9,6.5,4.4,8.4,7.7c1.9,3.3,2.8,7,2.8,11.3C-1556.5,1225.9-1557.4,1229.5-1559.2,1232.7z
			 M-1575.5,1228.3c1.5-1.5,2.3-3.6,2.3-6.3c0-2.7-0.8-4.8-2.3-6.3c-1.5-1.5-3.9-2.2-7-2.2h-9v16.9h9
			C-1579.4,1230.5-1577.1,1229.7-1575.5,1228.3z"/>
		<path class="st0" d="M-1535.3,1264.1c-5.3-3-9.5-7.1-12.6-12.4c-3.1-5.3-4.7-11.2-4.7-17.9c0-6.6,1.6-12.5,4.7-17.8
			c3.1-5.3,7.3-9.4,12.6-12.3c5.3-3,11.1-4.4,17.5-4.4c6.4,0,12.2,1.5,17.5,4.4c5.3,3,9.5,7.1,12.5,12.3c3,5.3,4.6,11.2,4.6,17.8
			c0,6.6-1.5,12.6-4.6,17.9c-3.1,5.3-7.3,9.4-12.5,12.4c-5.3,3-11.1,4.4-17.4,4.4C-1524.2,1268.5-1530,1267-1535.3,1264.1z
			 M-1504.9,1248.1c3.2-3.6,4.9-8.3,4.9-14.2c0-6-1.6-10.7-4.9-14.3c-3.2-3.6-7.6-5.3-12.9-5.3c-5.5,0-9.8,1.8-13,5.3
			c-3.2,3.5-4.9,8.3-4.9,14.3c0,6,1.6,10.7,4.9,14.3c3.2,3.6,7.6,5.3,13,5.3C-1512.4,1253.5-1508.1,1251.7-1504.9,1248.1z"/>
		<path class="st0" d="M-1427.3,1200.3v13.2h-17.9v54.4h-16.5v-54.4h-17.9v-13.2H-1427.3z"/>
		<path class="st7" d="M-1375.1,1200.3v13.2h-27.5v14.2h20.6v12.8h-20.6v27.3h-16.5v-67.6H-1375.1z"/>
		<path class="st7" d="M-1351.8,1200.3v67.6h-16.5v-67.6H-1351.8z"/>
		<path class="st7" d="M-1307.2,1267.8l-14.1-25.5h-3.9v25.5h-16.5v-67.6h27.6c5.3,0,9.9,0.9,13.6,2.8c3.8,1.9,6.6,4.4,8.4,7.7
			c1.9,3.2,2.8,6.8,2.8,10.8c0,4.5-1.3,8.5-3.8,12c-2.5,3.5-6.3,6-11.2,7.5l15.6,26.8H-1307.2z M-1325.2,1230.7h10.2
			c3,0,5.3-0.7,6.8-2.2c1.5-1.5,2.3-3.6,2.3-6.3c0-2.6-0.8-4.6-2.3-6.1c-1.5-1.5-3.8-2.2-6.8-2.2h-10.2V1230.7z"/>
		<path class="st7" d="M-1264.3,1213.4v13.7h22v12.7h-22v14.8h24.9v13.2h-41.4v-67.6h41.4v13.2H-1264.3z"/>
	</g>
	<g>
		
			<linearGradient id="SVGID_00000090268825771953903860000009683432002711091119_" gradientUnits="userSpaceOnUse" x1="-1743.2568" y1="1297.7317" x2="-1743.2568" y2="1124.8563">
			<stop  offset="0" style="stop-color:#55C1AB"/>
			<stop  offset="1" style="stop-color:#1F6EAA"/>
		</linearGradient>
		<path style="fill:url(#SVGID_00000090268825771953903860000009683432002711091119_);" d="M-1733.8,1292.3c-2.9,2.2-6,4-9.2,5.5
			c0.4-0.3,0.8-0.6,1.3-0.8c24.3-16.4-10.6-55.3-10.6-55.3l-3.3-3.8c-1.8-6-4.4-11.9-6.7-17.6c-4.8-11.8-8.9-24-10-36.7
			c-1.1-12.7,0.9-25.9,7.4-36.8c6.5-10.9,19.3-20.8,32-21.8c-10.5,4.9-16.8,16.4-17.8,27.9c-1,11.5,2.6,23,7.8,33.4
			c5.2,10.4,11.9,19.9,17.6,29.9c5.7,10.1,10.5,21,11.4,32.5C-1712.8,1265.2-1720.5,1282.2-1733.8,1292.3z"/>
		
			<linearGradient id="SVGID_00000114031831386021850510000005634519682284875683_" gradientUnits="userSpaceOnUse" x1="-1809.0607" y1="1229.4905" x2="-1760.8462" y2="1229.4905">
			<stop  offset="0" style="stop-color:#55C1AB"/>
			<stop  offset="1" style="stop-color:#1F6EAA"/>
		</linearGradient>
		<path style="fill:url(#SVGID_00000114031831386021850510000005634519682284875683_);" d="M-1787.2,1265.4
			c6.5-3.7,9.7-12.2,7.3-19.2c-1.1-3.4-3.4-6.3-5.5-9.1c-3.8-5-7.4-10.2-10-16c-2.6-5.7-4-12.1-3-18.4c1.2-8.2,6.9-15.8,14.8-18.4
			c-5.5,3.6-8,11.1-5.9,17.3c1.3,3.9,4.2,7.1,7,10.2c4.2,4.8,8.2,9.8,12,14.9c4,5.4,7.9,11.2,9.2,17.8c1.5,7.7-0.8,16-6.1,21.8
			s-13.3,8.9-21.1,8.1c-5.8-0.6-11.3-3.3-15.5-7.4c-0.9-0.9-1.9-1.7-2.8-2.8c-0.9-1.1-1.7-2.4-2.3-3.7c0.2,0.4,1,0.9,1.4,1.2
			c0.5,0.4,1,0.8,1.5,1.3c1,0.8,1.9,1.5,3,2.1c2.1,1.2,4.5,1.9,7,2.1C-1793.2,1267.6-1789.9,1267-1787.2,1265.4z"/>
		
			<linearGradient id="SVGID_00000078009009202276098100000013453227804982739628_" gradientUnits="userSpaceOnUse" x1="-1812.8949" y1="1270.0344" x2="-1733.1627" y2="1270.0344">
			<stop  offset="0" style="stop-color:#3AA2A8"/>
			<stop  offset="1" style="stop-color:#1F5EA5"/>
		</linearGradient>
		<path style="fill:url(#SVGID_00000078009009202276098100000013453227804982739628_);" d="M-1741.8,1296.9
			c-0.4,0.3-0.8,0.6-1.3,0.8c-6.7,3.1-14.2,4.6-21.6,4.6c-5.6,0-11.3-1-16.6-2.9c-15.6-5.7-28-19.7-31.7-35.9
			c4.2,12.2,18.6,19.7,31.5,18.9c8.1-0.5,15.8-4.6,21-10.8c3.1-3.6,5.4-8,6.4-12.6c1.5-7.1,0.5-14.2-1.7-21.2l3.3,3.8
			C-1752.4,1241.6-1717.4,1280.5-1741.8,1296.9z"/>
	</g>
</g>
</svg>
